<svg version="1.2" xmlns="http://www.w3.org/2000/svg" viewBox="0 0 512 512" width="512" height="512">
	<title>download-solid-svg</title>
	<style>
		.s0 { fill: #ffffff } 
	</style>
	<path class="s0" d="m170.1 454c-17.2 0-31.1-13.9-31.1-31.1 0-17.1 13.9-31 31.1-31h310.5c17.2 0 31.1 13.9 31.1 31 0 17.2-13.9 31.1-31.1 31.1zm177.3-94.5c-12.2 12.1-31.9 12.1-44 0l-124.2-124.3c-12.2-12.1-12.2-31.8 0-43.9 12.1-12.2 31.8-12.2 43.9 0l71.3 71.2v-173.4c0-17.2 13.9-31.1 31-31.1 17.2 0 31.1 13.9 31.1 31.1v173.4l71.2-71.2c12.2-12.2 31.9-12.2 44 0 12.1 12.1 12.1 31.8 0 43.9l-124.2 124.3z"/>
</svg>