<svg xmlns="http://www.w3.org/2000/svg" viewBox="0 0 512 512"><!--!Font Awesome Free 6.6.0 by @fontawesome - https://fontawesome.com License - https://fontawesome.com/license/free Copyright 2024 Fonticons, Inc.--><path fill="#fff" d="M32 440c-17.7 0-32-14.3-32-32s14.3-32 32-32l320 0c17.7 0 32 14.3 32 32s-14.3 32-32 32L32 440zM214.6 342.6c-12.5 12.5-32.8 12.5-45.3 0l-128-128c-12.5-12.5-12.5-32.8 0-45.3s32.8-12.5 45.3 0L160 242.7 160 64c0-17.7 14.3-32 32-32s32 14.3 32 32l0 178.7 73.4-73.4c12.5-12.5 32.8-12.5 45.3 0s12.5 32.8 0 45.3l-128 128z"/></svg>