<svg version="1.2" xmlns="http://www.w3.org/2000/svg" viewBox="0 0 512 512" width="512" height="512">
	<title>download-solid-svg</title>
	<style>
		.s0 { fill: #ffffff } 
	</style>
	<path fill-rule="evenodd" class="s0" d="m427.1 128.6c41.6 38.5 69.5 84.7 82.7 116.5 2.9 7 2.9 14.8 0 21.8-13.2 31.8-41.1 77.9-82.7 116.5-41.8 39-99.3 71.7-171.1 71.7-71.8 0-129.3-32.7-171.2-71.7-41.6-38.5-69.4-84.7-82.6-116.5-2.9-7-2.9-14.8 0-21.8 13.2-31.8 41-78 82.6-116.5 41.9-39 99.4-71.7 171.2-71.7 71.8 0 129.3 32.7 171.1 71.7zm-261.6 217.9c24 24 56.5 37.5 90.5 37.5 33.9 0 66.5-13.5 90.5-37.5 24-24 37.5-56.6 37.5-90.5 0-33.9-13.5-66.5-37.5-90.5-24-24-56.6-37.5-90.5-37.5-34 0-66.5 13.5-90.5 37.5-24 24-37.5 56.6-37.5 90.5 0 33.9 13.5 66.5 37.5 90.5zm87.5-165.4c-1.6-5 1.5-10.6 6.6-10.4 36.3 1.5 68.9 26.3 78.8 63.2 12.1 45.5-14.9 92.3-60.4 104.5-45.5 12.2-92.3-14.9-104.5-60.4-1.7-6.1-2.6-12.2-2.9-18.4-0.1-5.1 5.6-8.1 10.4-6.5 5.7 1.8 11.8 2.9 18.1 2.9 31.4 0 56.9-25.5 56.9-56.9 0-6.3-1.1-12.3-3-18z"/>
</svg>